<svg width="29" height="37" viewBox="0 0 29 37" fill="none" xmlns="http://www.w3.org/2000/svg">
<path d="M21.9286 5.07895H23.7857C25.8371 5.07895 27.5 6.6813 27.5 8.65789V31.9211C27.5 33.8977 25.8371 35.5 23.7857 35.5H5.21429C3.16294 35.5 1.5 33.8977 1.5 31.9211V8.65789C1.5 6.6813 3.16294 5.07895 5.21429 5.07895H7.07143M21.9286 5.07895C21.9286 7.05555 20.2656 8.65789 18.2143 8.65789H10.7857C8.73437 8.65789 7.07143 7.05555 7.07143 5.07895M21.9286 5.07895C21.9286 3.10235 20.2656 1.5 18.2143 1.5H10.7857C8.73437 1.5 7.07143 3.10235 7.07143 5.07895M7.0715 21.1842H9.85722L12.6429 25.6579L16.3572 16.7105L19.1429 22.079H21.9286" stroke="#36475C" stroke-width="3" stroke-linecap="round" stroke-linejoin="round"/>
</svg>
