<svg width="37" height="37" viewBox="0 0 37 37" fill="none" xmlns="http://www.w3.org/2000/svg">
<path d="M14.3649 3.19979H16.2027C18.2327 3.19979 19.8784 4.72202 19.8784 6.59978V13.4C19.8784 18.0944 15.7642 21.9 10.6892 21.9M7.01351 3.19979H5.17568C3.14566 3.19979 1.5 4.72202 1.5 6.59978V13.4C1.5 18.0944 5.61414 21.9 10.6892 21.9M10.6892 21.9V26.15C10.6892 31.3139 15.2147 35.5 20.7973 35.5C26.3799 35.5 30.9054 31.3139 30.9054 26.15V24.45M30.9054 24.45C33.4429 24.45 35.5 22.5472 35.5 20.2C35.5 17.8528 33.4429 15.95 30.9054 15.95C28.3679 15.95 26.3108 17.8528 26.3108 20.2C26.3108 22.5472 28.3679 24.45 30.9054 24.45ZM14.3649 1.5L14.3648 4.89966M7.01351 1.50003V4.90003" stroke="#36475C" stroke-width="3" stroke-linecap="round" stroke-linejoin="round"/>
</svg>
