<svg width="28" height="37" viewBox="0 0 28 37" fill="none" xmlns="http://www.w3.org/2000/svg">
<path d="M9.3125 23.061H18.6875M14 18.0854V28.0366M24.4105 13.8392C25.7588 15.509 26.5 17.6357 26.5 19.8349V32.1829C26.5 34.0149 25.1009 35.5 23.375 35.5H4.625C2.89911 35.5 1.5 34.0149 1.5 32.1829V19.8349C1.5 17.6357 2.24116 15.509 3.58953 13.8392C5.23849 11.7972 7.64574 10.622 10.1795 10.622H17.8205C20.3543 10.622 22.7615 11.7972 24.4105 13.8392ZM8.53125 6.47561H19.4688C20.7632 6.47561 21.8125 5.36178 21.8125 3.9878C21.8125 2.61383 20.7632 1.5 19.4688 1.5H8.53125C7.23683 1.5 6.1875 2.61383 6.1875 3.9878C6.1875 5.36178 7.23683 6.47561 8.53125 6.47561Z" stroke="#36475C" stroke-width="3" stroke-linecap="round" stroke-linejoin="round"/>
</svg>
